<svg width="29" height="29" viewBox="0 0 29 29" fill="none" xmlns="http://www.w3.org/2000/svg">
<circle cx="10" cy="10" r="9" fill="#C4C4C4" stroke="#023047" stroke-width="2"/>
<path d="M18.8721 16.9956C19.2627 16.605 19.8958 16.605 20.2863 16.9956L27.1262 23.8355C28.035 24.7442 28.035 26.2175 27.1262 27.1262C26.2175 28.0349 24.7442 28.0349 23.8355 27.1262L16.9956 20.2863C16.6051 19.8958 16.6051 19.2626 16.9956 18.8721L18.8721 16.9956Z" fill="#023047"/>
<path d="M14.6041 12.4102L26.2351 24.0412C26.8409 24.6471 26.8409 25.6293 26.2351 26.2351C25.6293 26.8409 24.6471 26.8409 24.0413 26.2351L12.4103 14.6041L14.6041 12.4102Z" fill="#C4C4C4"/>
<path d="M19.7788 17.0641C19.7788 17.0641 19.0108 19.179 17.0641 19.7789" stroke="#023047"/>
</svg>
