<svg width="29" height="29" viewBox="0 0 29 29" fill="none" xmlns="http://www.w3.org/2000/svg">
<circle cx="10" cy="10" r="9" fill="#6C6C6C" stroke="#FB8500" stroke-width="2"/>
<path d="M18.8721 16.9956C19.2626 16.605 19.8958 16.605 20.2863 16.9956L27.1262 23.8355C28.0349 24.7442 28.0349 26.2175 27.1262 27.1262C26.2175 28.035 24.7442 28.035 23.8355 27.1262L16.9956 20.2863C16.605 19.8958 16.605 19.2626 16.9956 18.8721L18.8721 16.9956Z" fill="#FB8500"/>
<path d="M14.6041 12.4103L26.2351 24.0413C26.8409 24.6471 26.8409 25.6293 26.2351 26.2351C25.6293 26.8409 24.6471 26.8409 24.0412 26.2351L12.4103 14.6041L14.6041 12.4103Z" fill="#6C6C6C"/>
<path d="M19.7789 17.0641C19.7789 17.0641 19.0108 19.179 17.0641 19.7788" stroke="#FB8500"/>
</svg>
