<svg width="127" height="139" viewBox="0 0 127 139" fill="none" xmlns="http://www.w3.org/2000/svg">
<path d="M91.5 26C91.5 43.397 79.2401 63 63.5 63C47.7599 63 35.5 43.397 35.5 26C35.5 8.60303 47.7599 0 63.5 0C79.2401 0 91.5 8.60303 91.5 26Z" fill="black"/>
<path d="M127 105C127 100.535 125.358 96.1138 122.166 91.9888C118.975 87.8637 114.298 84.1156 108.401 80.9584C102.505 77.8012 95.5046 75.2968 87.8004 73.5881C80.0962 71.8794 71.8389 71 63.5 71C55.1611 71 46.9038 71.8794 39.1996 73.5881C31.4954 75.2968 24.4952 77.8012 18.5987 80.9584C12.7022 84.1156 8.02482 87.8637 4.83365 91.9888C1.64247 96.1138 -7.29013e-07 100.535 0 105L63.5 105H127Z" fill="black"/>
<path d="M57 23.5246C57 15 64.7143 15 64.7143 15C64.7143 15 72 15 72 23.5246C72 32.0492 63.4286 33.7541 63.4286 33.7541V41" stroke="#FB8500" stroke-width="5"/>
<path d="M66 46.5C66 47.8807 64.8807 49 63.5 49C62.1193 49 61 47.8807 61 46.5C61 45.1193 62.1193 44 63.5 44C64.8807 44 66 45.1193 66 46.5Z" fill="#FB8500"/>
</svg>
